<svg xmlns="http://www.w3.org/2000/svg" width="80" height="80" viewBox="0 0 80 80">
  <path id="Path_412" data-name="Path 412" d="M76.67,49.18a16.437,16.437,0,0,0-5.35-4.529,12.732,12.732,0,0,0,1.745-6.45V32.192A12.818,12.818,0,0,0,53.252,21.456V9.363A9.373,9.373,0,0,0,43.89,0H22.713V9.457a9.359,9.359,0,0,0,4,7.674v4.305A12.818,12.818,0,0,0,6.936,32.192V38.2a12.731,12.731,0,0,0,1.745,6.45,16.434,16.434,0,0,0-5.35,4.529A16.134,16.134,0,0,0,0,59.047V80H80V59.047a16.134,16.134,0,0,0-3.33-9.867ZM27.4,4.688H43.889a4.68,4.68,0,0,1,4.675,4.675v4.77H32.076A4.68,4.68,0,0,1,27.4,9.457ZM48.565,18.82v6.35a8.58,8.58,0,0,1-17.159,0V18.8q.332.024.671.024H48.565ZM17.445,75.313H4.687V59.047a11.661,11.661,0,0,1,7.2-10.734,12.767,12.767,0,0,0,5.554,2.492V75.313Zm0-29.678v.359A8.141,8.141,0,0,1,11.623,38.2V32.192A8.144,8.144,0,0,1,27.4,29.376a13.215,13.215,0,0,0,1.443,2.99,13.437,13.437,0,0,0-11.4,13.268Zm20.2,29.678H22.133V45.634a8.742,8.742,0,0,1,7.283-8.612,51.87,51.87,0,0,0,.506,5.712c1.079,7.4,3.741,13.511,7.72,17.746ZM34.116,37.063a13.259,13.259,0,0,0,11.744,0C45.673,42.055,44.6,50.2,39.986,56.029c-4.6-5.82-5.678-13.975-5.87-18.966ZM57.837,75.313H42.329V60.48c3.979-4.236,6.641-10.349,7.72-17.758a51.928,51.928,0,0,0,.505-5.7,8.743,8.743,0,0,1,7.283,8.612ZM51.125,32.366A13.215,13.215,0,0,0,52.559,29.4l.026.009a8.144,8.144,0,0,1,15.792,2.78V38.2A8.14,8.14,0,0,1,62.525,46v-.367A13.437,13.437,0,0,0,51.125,32.366ZM75.313,75.313H62.525v-24.5a12.769,12.769,0,0,0,5.584-2.5,11.661,11.661,0,0,1,7.2,10.733Z" fill="#fff"/>
</svg>
