<svg xmlns="http://www.w3.org/2000/svg" width="65.089" height="80" viewBox="0 0 65.089 80">
  <g id="Group_155" data-name="Group 155" transform="translate(0 0)">
    <path id="Path_415" data-name="Path 415" d="M107.249,84.852Z" transform="translate(-43.639 -63.491)" fill="#fff"/>
    <path id="Path_423" data-name="Path 423" d="M64.337,143.491H50.751a7.12,7.12,0,0,1-7.112-7.112V70.6a7.12,7.12,0,0,1,7.112-7.112H64.337A7.12,7.12,0,0,1,71.45,70.6V84.189a1.479,1.479,0,0,1-2.959,0V70.6a4.158,4.158,0,0,0-4.154-4.154H50.751A4.159,4.159,0,0,0,46.6,70.6v65.775a4.159,4.159,0,0,0,4.154,4.154H64.337a4.158,4.158,0,0,0,4.154-4.154,1.479,1.479,0,1,1,2.959,0,7.12,7.12,0,0,1-7.112,7.112Z" transform="translate(-43.639 -63.491)" fill="#fff"/>
    <path id="Path_424" data-name="Path 424" d="M83.059,143.491H74.278a5.794,5.794,0,0,1-5.787-5.787V84.189A5.793,5.793,0,0,1,74.278,78.4h8.781a5.794,5.794,0,0,1,5.787,5.787,1.479,1.479,0,0,1-2.959,0,2.831,2.831,0,0,0-2.828-2.828H74.278a2.832,2.832,0,0,0-2.829,2.828V137.7a2.832,2.832,0,0,0,2.829,2.828h8.781a2.832,2.832,0,0,0,2.828-2.828,1.479,1.479,0,0,1,2.959,0A5.794,5.794,0,0,1,83.059,143.491Z" transform="translate(-43.639 -63.491)" fill="#fff"/>
    <path id="Path_425" data-name="Path 425" d="M102.941,143.491H91.675a5.794,5.794,0,0,1-5.787-5.787V76.734a5.793,5.793,0,0,1,5.787-5.787h11.266a5.794,5.794,0,0,1,5.787,5.787V137.7A5.793,5.793,0,0,1,102.941,143.491ZM91.675,73.905a2.832,2.832,0,0,0-2.829,2.829V137.7a2.832,2.832,0,0,0,2.829,2.828h11.266a2.832,2.832,0,0,0,2.828-2.828V76.734a2.832,2.832,0,0,0-2.828-2.829H91.675Z" transform="translate(-43.639 -63.491)" fill="#fff"/>
    <path id="Path_426" data-name="Path 426" d="M69.97,83.846H45.118a1.479,1.479,0,1,1,0-2.959H69.97a1.479,1.479,0,1,1,0,2.959Z" transform="translate(-43.639 -63.491)" fill="#fff"/>
    <path id="Path_427" data-name="Path 427" d="M69.97,131.065H45.118a1.479,1.479,0,0,1,0-2.959H69.97a1.479,1.479,0,1,1,0,2.959Z" transform="translate(-43.639 -63.491)" fill="#fff"/>
    <path id="Path_428" data-name="Path 428" d="M87.367,101.243H69.97a1.479,1.479,0,0,1,0-2.959h17.4a1.479,1.479,0,1,1,0,2.959Z" transform="translate(-43.639 -63.491)" fill="#fff"/>
    <path id="Path_429" data-name="Path 429" d="M107.249,86.331H87.367a1.479,1.479,0,0,1,0-2.959h19.882a1.479,1.479,0,1,1,0,2.959Z" transform="translate(-43.639 -63.491)" fill="#fff"/>
    <path id="Path_430" data-name="Path 430" d="M107.249,131.065H87.367a1.479,1.479,0,0,1,0-2.959h19.882a1.479,1.479,0,1,1,0,2.959Z" transform="translate(-43.639 -63.491)" fill="#fff"/>
    <path id="Path_431" data-name="Path 431" d="M87.367,123.609H69.97a1.479,1.479,0,0,1,0-2.959h17.4a1.479,1.479,0,1,1,0,2.959Z" transform="translate(-43.639 -63.491)" fill="#fff"/>
    <path id="Path_432" data-name="Path 432" d="M52.574,111.183a1.479,1.479,0,0,1-1.479-1.479v-17.4a1.479,1.479,0,0,1,2.959,0v17.4a1.479,1.479,0,0,1-1.479,1.479Z" transform="translate(-43.639 -63.491)" fill="#fff"/>
    <path id="Path_433" data-name="Path 433" d="M99.793,94.675h-4.97a1.479,1.479,0,0,1,0-2.959h4.97a1.479,1.479,0,0,1,0,2.959Z" transform="translate(-43.639 -63.491)" fill="#fff"/>
    <path id="Path_434" data-name="Path 434" d="M99.793,100.592h-4.97a1.479,1.479,0,0,1,0-2.959h4.97a1.479,1.479,0,0,1,0,2.959Z" transform="translate(-43.639 -63.491)" fill="#fff"/>
    <path id="Path_435" data-name="Path 435" d="M99.793,106.509h-4.97a1.479,1.479,0,0,1,0-2.959h4.97a1.479,1.479,0,0,1,0,2.959Z" transform="translate(-43.639 -63.491)" fill="#fff"/>
  </g>
</svg>
