<svg xmlns="http://www.w3.org/2000/svg" width="114.286" height="80" viewBox="0 0 114.286 80">
  <path id="people-group-solid" d="M32.857,15.714a10,10,0,1,1-10-10A10.006,10.006,0,0,1,32.857,15.714Zm4.357,19.339a25.668,25.668,0,0,0-8.643,19.232,24.707,24.707,0,0,0,5.714,16.161v3.839A5.708,5.708,0,0,1,28.571,80H17.143a5.712,5.712,0,0,1-5.714-5.714V69.5A20,20,0,0,1,20,31.429h5.714a20.294,20.294,0,0,1,11.5,3.625ZM11.429,43.875a11.413,11.413,0,0,0,0,15.107ZM80,74.286V70.446a25.715,25.715,0,0,0-2.929-35.393,19.913,19.913,0,0,1,11.5-3.625h5.714A20,20,0,0,1,102.857,69.5v4.786A5.708,5.708,0,0,1,97.143,80H85.714A5.708,5.708,0,0,1,80,74.286Zm22.857-15.3a12.18,12.18,0,0,0,2.857-7.554,12.18,12.18,0,0,0-2.857-7.554Zm-1.429-43.268a10,10,0,1,1-10-10A10.006,10.006,0,0,1,101.429,15.714ZM45.714,17.143A11.429,11.429,0,1,1,57.143,28.571,11.433,11.433,0,0,1,45.714,17.143ZM80,54.286A20.009,20.009,0,0,1,68.571,72.357V80a5.708,5.708,0,0,1-5.714,5.714H51.429A5.708,5.708,0,0,1,45.714,80V72.357a20,20,0,0,1,8.571-38.071H60A19.99,19.99,0,0,1,80,54.286ZM45.714,61.839V46.732a11.413,11.413,0,0,0,0,15.107ZM68.571,46.732V61.839a12.22,12.22,0,0,0,2.857-7.554A12.18,12.18,0,0,0,68.571,46.732Z" transform="translate(0 -5.714)" fill="#fff"/>
</svg>
