<svg id="Group_154" data-name="Group 154" xmlns="http://www.w3.org/2000/svg" width="121" height="74.462" viewBox="0 0 121 74.462">
  <path id="Path_424" data-name="Path 424" d="M139.615,118.673H21.718a1.551,1.551,0,0,1-1.551-1.551V45.763a1.551,1.551,0,0,1,1.551-1.551h117.9a1.551,1.551,0,0,1,1.551,1.551v71.359A1.551,1.551,0,0,1,139.615,118.673Zm-116.346-3.1H138.064V47.314H23.269Z" transform="translate(-20.167 -44.212)" fill="#fff"/>
  <path id="Path_427" data-name="Path 427" d="M124.028,110.872a7.707,7.707,0,0,1-5.484-2.271L107.73,97.787A23.265,23.265,0,1,1,118.7,86.816L129.513,97.63a7.756,7.756,0,0,1-5.484,13.242Zm-16-16.53a1.551,1.551,0,0,1,1.1.455l11.61,11.61a4.654,4.654,0,1,0,6.58-6.584l-11.61-11.61a1.551,1.551,0,0,1-.267-1.835,20.154,20.154,0,1,0-8.148,8.151,1.551,1.551,0,0,1,.737-.186Z" transform="translate(-20.167 -44.212)" fill="#fff"/>
  <path id="Path_428" data-name="Path 428" d="M97.7,92.3a15.513,15.513,0,1,1,10.97-4.542A15.512,15.512,0,0,1,97.7,92.3Zm0-27.922a12.41,12.41,0,1,0,8.777,3.634A12.41,12.41,0,0,0,97.7,64.38Z" transform="translate(-20.167 -44.212)" fill="#fff"/>
  <path id="Path_429" data-name="Path 429" d="M54.295,59.724H29.474a1.551,1.551,0,0,1,0-3.1H54.295a1.551,1.551,0,1,1,0,3.1Z" transform="translate(-20.167 -44.212)" fill="#fff"/>
  <path id="Path_430" data-name="Path 430" d="M54.295,67.481H29.474a1.551,1.551,0,0,1,0-3.1H54.295a1.551,1.551,0,0,1,0,3.1Z" transform="translate(-20.167 -44.212)" fill="#fff"/>
  <path id="Path_431" data-name="Path 431" d="M63.6,75.237H29.474a1.551,1.551,0,1,1,0-3.1H63.6a1.551,1.551,0,1,1,0,3.1Z" transform="translate(-20.167 -44.212)" fill="#fff"/>
  <path id="Path_432" data-name="Path 432" d="M63.6,82.994H29.474a1.551,1.551,0,1,1,0-3.1H63.6a1.551,1.551,0,1,1,0,3.1Z" transform="translate(-20.167 -44.212)" fill="#fff"/>
  <path id="Path_433" data-name="Path 433" d="M63.6,90.75H29.474a1.551,1.551,0,1,1,0-3.1H63.6a1.551,1.551,0,1,1,0,3.1Z" transform="translate(-20.167 -44.212)" fill="#fff"/>
  <path id="Path_434" data-name="Path 434" d="M63.6,98.506H29.474a1.551,1.551,0,0,1,0-3.1H63.6a1.551,1.551,0,0,1,0,3.1Z" transform="translate(-20.167 -44.212)" fill="#fff"/>
</svg>
